<svg width="50" height="60" viewBox="0 0 50 60" fill="none" xmlns="http://www.w3.org/2000/svg">
<path d="M31.3852 56.1755H28.6642L27.858 57.5896C27.2389 58.6894 26.0584 59.375 24.7915 59.375C23.5246 59.375 22.344 58.6894 21.725 57.5896L20.9187 56.1755H18.1978V54.2759H31.3852V56.1755Z" fill="#4A5568"/>
<path d="M31.385 52.8905H18.2119V50.8908H31.385V52.8905ZM31.385 47.42H18.2119V49.4197H31.385V47.42ZM49.5537 32.1942L43.795 30.6659L44.2269 29.0662L49.9856 30.5945L49.5537 32.1942ZM0.431903 32.1942L0 30.5945L5.75871 29.0662L6.19061 30.6659L0.431903 32.1942ZM44.2413 20.5392L43.8094 18.9394L49.5681 17.4111L50 19.0109L44.2413 20.5392ZM5.75871 20.5392L0 19.0109L0.431903 17.4111L6.19061 18.9394L5.75871 20.5392ZM39.5191 11.5693L38.3386 10.3981L42.5425 6.22745L43.723 7.39866L39.5191 11.5693ZM10.4809 11.5693L6.2626 7.38438L7.44313 6.21316L11.6614 10.3981L10.4809 11.5693ZM30.9099 6.14175L29.2974 5.71325L30.8379 0L32.4503 0.428494L30.9099 6.14175ZM19.0901 6.14175L17.5497 0.428494L19.1621 0L20.7026 5.71325L19.0901 6.14175Z" fill="#CBD5E0"/>
<path d="M23.0205 29.7518H26.5765V46.0774H23.0205V29.7518ZM24.7913 8.82704C16.0812 8.58422 8.94043 15.7544 8.94043 24.6385C8.94043 29.2091 10.8264 33.3226 13.8497 36.2078C16.4987 38.7359 18.1976 42.3495 18.1976 46.0774H21.8975V29.7518H19.2197C17.1322 29.7518 15.4334 28.0664 15.4334 25.9954C15.4334 23.9243 17.1322 22.2389 19.2197 22.2389C21.3073 22.2389 23.0205 23.9243 23.0205 25.9954V28.652H26.5765V25.9954C26.5765 23.9243 28.2753 22.2389 30.3772 22.2389C32.4792 22.2389 34.1636 23.9243 34.1636 25.9954C34.1636 28.0664 32.4648 29.7518 30.3772 29.7518H27.6994V46.0774H31.385C31.385 42.3495 33.0694 38.7502 35.7328 36.2078C38.7562 33.3226 40.6421 29.2091 40.6421 24.6385C40.6421 15.7544 33.5013 8.58422 24.7913 8.82704ZM19.2197 23.3244C17.7369 23.3244 16.5419 24.5099 16.5419 25.9811C16.5419 27.4522 17.7369 28.6377 19.2197 28.6377H21.8975V25.9811C21.8975 24.5242 20.7026 23.3244 19.2197 23.3244ZM30.3628 28.6377H27.685V25.9811C27.685 24.5099 28.88 23.3244 30.3628 23.3244C31.8457 23.3244 33.0406 24.5099 33.0406 25.9811C33.0406 27.4522 31.8313 28.6377 30.3628 28.6377Z" fill="#ECC94B"/>
</svg>
