<svg width="231" height="76" viewBox="0 0 231 76" fill="none" xmlns="http://www.w3.org/2000/svg">
<path d="M87.6992 50H82.3203V24.0898H87.6992V50ZM102.975 30.3828C104.955 30.3828 106.572 30.9043 107.826 31.9473C109.092 32.9785 109.725 34.6953 109.725 37.0977V50H104.592V38.3457C104.592 37.3379 104.457 36.5645 104.188 36.0254C103.695 35.041 102.758 34.5488 101.375 34.5488C99.6758 34.5488 98.5098 35.2695 97.877 36.7109C97.5488 37.4727 97.3848 38.4453 97.3848 39.6289V50H92.3926V30.875H97.2266V33.6699C97.8711 32.6855 98.4805 31.9766 99.0547 31.543C100.086 30.7695 101.393 30.3828 102.975 30.3828ZM114.312 24.1777H119.234V38.1348L125.475 30.9277H131.68L124.982 38.2578L131.943 50H125.896L121.309 41.8086L119.234 43.9707V50H114.312V24.1777ZM139.52 50H134.51V24.0898H139.52V50ZM151.982 34.4609C150.822 34.4609 149.92 34.8242 149.275 35.5508C148.643 36.2773 148.244 37.2617 148.08 38.5039H155.867C155.785 37.1797 155.381 36.1777 154.654 35.498C153.939 34.8066 153.049 34.4609 151.982 34.4609ZM151.982 30.3301C153.576 30.3301 155.012 30.6289 156.289 31.2266C157.566 31.8242 158.621 32.7676 159.453 34.0566C160.203 35.1934 160.689 36.5117 160.912 38.0117C161.041 38.8906 161.094 40.1562 161.07 41.8086H147.957C148.027 43.7305 148.631 45.0781 149.768 45.8516C150.459 46.332 151.291 46.5723 152.264 46.5723C153.295 46.5723 154.133 46.2793 154.777 45.6934C155.129 45.377 155.439 44.9375 155.709 44.375H160.824C160.695 45.5117 160.104 46.666 159.049 47.8379C157.408 49.7012 155.111 50.6328 152.158 50.6328C149.721 50.6328 147.57 49.8477 145.707 48.2773C143.844 46.707 142.912 44.1523 142.912 40.6133C142.912 37.2969 143.75 34.7539 145.426 32.9844C147.113 31.2148 149.299 30.3301 151.982 30.3301ZM164.375 44.7617H169.701V50H164.375V44.7617ZM172.602 50L179.141 40.2969L172.883 30.875H179.018L182.217 36.4297L185.346 30.875H191.305L185.012 40.209L191.551 50H185.311L182.006 44.252L178.684 50H172.602ZM195.295 53.6738L195.928 53.709C196.42 53.7324 196.889 53.7148 197.334 53.6562C197.779 53.5977 198.154 53.4629 198.459 53.252C198.752 53.0527 199.021 52.6367 199.268 52.0039C199.525 51.3711 199.631 50.9844 199.584 50.8438L192.553 30.8398H198.125L202.309 44.9727L206.264 30.8398H211.59L205.016 49.6836C203.75 53.3164 202.748 55.5664 202.01 56.4336C201.271 57.3125 199.795 57.752 197.58 57.752C197.135 57.752 196.777 57.7461 196.508 57.7344C196.238 57.7344 195.834 57.7168 195.295 57.6816V53.6738ZM213.471 34.918V30.8398H229.01V35.0059L219.289 45.8867H229.344V50H212.803V46.0977L222.629 34.918H213.471Z" fill="#4A5568"/>
<path d="M40.8005 71.9047H37.2632L36.2151 73.7147C35.4103 75.1224 33.8756 76 32.2286 76C30.5816 76 29.0469 75.1224 28.2422 73.7147L27.1941 71.9047H23.6568V69.4732H40.8005V71.9047Z" fill="#4A5568"/>
<path d="M40.8005 67.6998H23.6755V65.1403H40.8005V67.6998ZM40.8005 60.6976H23.6755V63.2572H40.8005V60.6976ZM64.4198 41.2086L56.9335 39.2523L57.495 37.2047L64.9813 39.1609L64.4198 41.2086ZM0.561474 41.2086L0 39.1609L7.48632 37.2047L8.0478 39.2523L0.561474 41.2086ZM57.5137 26.2901L56.9522 24.2425L64.4385 22.2863L65 24.3339L57.5137 26.2901ZM7.48632 26.2901L0 24.3339L0.561474 22.2863L8.0478 24.2425L7.48632 26.2901ZM51.3749 14.8088L49.8402 13.3096L55.3052 7.97113L56.8399 9.47029L51.3749 14.8088ZM13.6251 14.8088L8.14138 9.45201L9.67607 7.95285L15.1598 13.3096L13.6251 14.8088ZM40.1828 7.86144L38.0867 7.31297L40.0893 0L42.1854 0.548473L40.1828 7.86144ZM24.8172 7.86144L22.8146 0.548473L24.9107 0L26.9133 7.31297L24.8172 7.86144Z" fill="#CBD5E0"/>
<path d="M29.9266 38.0823H34.5494V58.9791H29.9266V38.0823ZM32.2286 11.2985C20.9056 10.9877 11.6225 20.1655 11.6225 31.5372C11.6225 37.3875 14.0743 42.6529 18.0046 46.3459C21.4483 49.5819 23.6568 54.2074 23.6568 58.9791H28.4667V38.0823H24.9856C22.2718 38.0823 20.0633 35.9249 20.0633 33.274C20.0633 30.623 22.2718 28.4657 24.9856 28.4657C27.6994 28.4657 29.9266 30.623 29.9266 33.274V36.6745H34.5494V33.274C34.5494 30.623 36.7578 28.4657 39.4903 28.4657C42.2229 28.4657 44.4126 30.623 44.4126 33.274C44.4126 35.9249 42.2041 38.0823 39.4903 38.0823H36.0092V58.9791H40.8005C40.8005 54.2074 42.9902 49.6002 46.4526 46.3459C50.383 42.6529 52.8347 37.3875 52.8347 31.5372C52.8347 20.1655 43.5517 10.9877 32.2286 11.2985ZM24.9856 29.8552C23.0579 29.8552 21.5045 31.3726 21.5045 33.2557C21.5045 35.1388 23.0579 36.6562 24.9856 36.6562H28.4667V33.2557C28.4667 31.3909 26.9133 29.8552 24.9856 29.8552ZM39.4716 36.6562H35.9905V33.2557C35.9905 31.3726 37.5439 29.8552 39.4716 29.8552C41.3994 29.8552 42.9528 31.3726 42.9528 33.2557C42.9528 35.1388 41.3806 36.6562 39.4716 36.6562Z" fill="#ECC94B"/>
</svg>
